<mxfile host="app.diagrams.net" agent="Mozilla/5.0 (X11; Linux x86_64) AppleWebKit/537.36 (KHTML, like Gecko) Chrome/131.0.0.0 Safari/537.36" version="26.2.14">
  <diagram name="Page-1" id="HC6bcyyaN290R9ltG3cT">
    <mxGraphModel dx="895" dy="589" grid="1" gridSize="10" guides="1" tooltips="1" connect="1" arrows="1" fold="1" page="1" pageScale="1" pageWidth="850" pageHeight="1100" math="0" shadow="0">
      <root>
        <mxCell id="0" />
        <mxCell id="1" parent="0" />
        <mxCell id="xG0nXUEYlLghtJL-qhBL-1" value="" style="rounded=1;whiteSpace=wrap;html=1;fillColor=#dae8fc;strokeColor=#6c8ebf;" parent="1" vertex="1">
          <mxGeometry x="180" y="130" width="460" height="350" as="geometry" />
        </mxCell>
        <mxCell id="xG0nXUEYlLghtJL-qhBL-2" value="" style="rounded=1;whiteSpace=wrap;html=1;fillColor=#f8cecc;strokeColor=#b85450;" parent="1" vertex="1">
          <mxGeometry x="240" y="190" width="387.5" height="280" as="geometry" />
        </mxCell>
        <mxCell id="xG0nXUEYlLghtJL-qhBL-3" value="&lt;font style=&quot;font-size: 18px;&quot;&gt;&lt;b&gt;Artificial Intelligence&lt;/b&gt;&lt;/font&gt;" style="text;html=1;align=center;verticalAlign=middle;whiteSpace=wrap;rounded=0;" parent="1" vertex="1">
          <mxGeometry x="307.5" y="150" width="205" height="30" as="geometry" />
        </mxCell>
        <mxCell id="xG0nXUEYlLghtJL-qhBL-4" value="&lt;font style=&quot;font-size: 18px;&quot;&gt;&lt;b&gt;Machine Learning&lt;/b&gt;&lt;/font&gt;" style="text;html=1;align=center;verticalAlign=middle;whiteSpace=wrap;rounded=0;" parent="1" vertex="1">
          <mxGeometry x="307.5" y="210" width="205" height="30" as="geometry" />
        </mxCell>
        <mxCell id="xG0nXUEYlLghtJL-qhBL-6" value="" style="rounded=1;whiteSpace=wrap;html=1;fillColor=#d5e8d4;strokeColor=#82b366;" parent="1" vertex="1">
          <mxGeometry x="307.5" y="240" width="307.5" height="222.19" as="geometry" />
        </mxCell>
        <mxCell id="xG0nXUEYlLghtJL-qhBL-7" value="&lt;font style=&quot;font-size: 18px;&quot;&gt;&lt;b&gt;Deep Learning&lt;/b&gt;&lt;/font&gt;" style="text;html=1;align=center;verticalAlign=middle;whiteSpace=wrap;rounded=0;" parent="1" vertex="1">
          <mxGeometry x="307.5" y="250" width="205" height="30" as="geometry" />
        </mxCell>
        <mxCell id="xG0nXUEYlLghtJL-qhBL-8" value="" style="rounded=1;whiteSpace=wrap;html=1;fillColor=#ffe6cc;strokeColor=#d79b00;" parent="1" vertex="1">
          <mxGeometry x="350" y="310" width="257.5" height="149.93" as="geometry" />
        </mxCell>
        <mxCell id="xG0nXUEYlLghtJL-qhBL-9" value="&lt;font style=&quot;font-size: 18px;&quot;&gt;&lt;b&gt;Large Language Models&lt;/b&gt;&lt;/font&gt;" style="text;html=1;align=center;verticalAlign=middle;whiteSpace=wrap;rounded=0;" parent="1" vertex="1">
          <mxGeometry x="390" y="380" width="205" height="30" as="geometry" />
        </mxCell>
        <mxCell id="xG0nXUEYlLghtJL-qhBL-10" value="&lt;font style=&quot;font-size: 18px;&quot;&gt;&lt;b&gt;Gen AI&lt;/b&gt;&lt;/font&gt;" style="rounded=1;whiteSpace=wrap;html=1;fillColor=#fff2cc;strokeColor=#d6b656;" parent="1" vertex="1">
          <mxGeometry x="470" y="255.03" width="125" height="104.97" as="geometry" />
        </mxCell>
        <mxCell id="xG0nXUEYlLghtJL-qhBL-12" value="" style="endArrow=classic;html=1;rounded=0;" parent="1" edge="1">
          <mxGeometry width="50" height="50" relative="1" as="geometry">
            <mxPoint x="580" y="380" as="sourcePoint" />
            <mxPoint x="680" y="330" as="targetPoint" />
          </mxGeometry>
        </mxCell>
        <mxCell id="xG0nXUEYlLghtJL-qhBL-13" value="&lt;font style=&quot;font-size: 15px;&quot;&gt;Deep Neural Network parses and generates human-like texts&lt;/font&gt;" style="text;html=1;align=center;verticalAlign=middle;whiteSpace=wrap;rounded=0;" parent="1" vertex="1">
          <mxGeometry x="660" y="300" width="180" height="30" as="geometry" />
        </mxCell>
        <mxCell id="xG0nXUEYlLghtJL-qhBL-14" value="" style="endArrow=classic;html=1;rounded=0;" parent="1" edge="1">
          <mxGeometry width="50" height="50" relative="1" as="geometry">
            <mxPoint x="570" y="280" as="sourcePoint" />
            <mxPoint x="670" y="230" as="targetPoint" />
          </mxGeometry>
        </mxCell>
        <mxCell id="xG0nXUEYlLghtJL-qhBL-17" value="&lt;font style=&quot;font-size: 15px;&quot;&gt;GenAI uses some neural net&lt;/font&gt;&lt;div&gt;&lt;font style=&quot;font-size: 15px;&quot;&gt;architecture to create new content such as text, images or other form of media&lt;/font&gt;&lt;/div&gt;" style="text;html=1;align=center;verticalAlign=middle;whiteSpace=wrap;rounded=0;" parent="1" vertex="1">
          <mxGeometry x="670" y="190" width="180" height="30" as="geometry" />
        </mxCell>
      </root>
    </mxGraphModel>
  </diagram>
</mxfile>
